# xmcd
#
# Track frame offsets:
#	150
#	54439
#	84071
#	105384
#	131206
#	155777
#	182070
#	199049
#	222686
#
# Disc length: 3580 seconds
#
# Revision: 5
# Processed by: cddbd v1.5.2PL0 Copyright (c) Steve Scherf et al.
# Submitted via: audiograbber 1.83.01
#
DISCID=7c0dfa09
DTITLE=Deep Purple - 1990-1996 [CD 3)
DYEAR=2004
DGENRE=HardRock
TTITLE0=Anya [live]
TTITLE1=Wicked Ways
TTITLE2=Fire In The Basement
TTITLE3=The Cut Runs Deep
TTITLE4=King Of Dreams
TTITLE5=Fortuneteller
TTITLE6=Love Conquers All
TTITLE7=Truth Hurts
TTITLE8=Smoke On The Water [live]
EXTD=
EXTT0=
EXTT1=
EXTT2=
EXTT3=
EXTT4=
EXTT5=
EXTT6=
EXTT7=
EXTT8=
PLAYORDER=
